<mxfile host="app.diagrams.net" modified="2021-02-18T12:53:52.465Z" agent="5.0 (X11)" etag="9NgcFlloqD6Qeghzwrt9" version="14.4.2" type="github">
  <diagram id="gtpaJ6bo7kJNYxkWSBoS" name="Page-1">
    <mxGraphModel dx="1350" dy="767" grid="1" gridSize="10" guides="1" tooltips="1" connect="1" arrows="1" fold="1" page="1" pageScale="1" pageWidth="3300" pageHeight="2339" math="0" shadow="0">
      <root>
        <mxCell id="0" />
        <mxCell id="1" parent="0" />
        <mxCell id="XJCN1oPJeTsM1_EE1O9K-1" value="" style="rounded=0;whiteSpace=wrap;html=1;fillColor=#ffff88;strokeColor=#36393d;" vertex="1" parent="1">
          <mxGeometry x="120" y="200" width="80" height="320" as="geometry" />
        </mxCell>
        <mxCell id="XJCN1oPJeTsM1_EE1O9K-2" value="&lt;div style=&quot;font-size: 24px&quot;&gt;&lt;b&gt;Conv2D&lt;/b&gt;&lt;/div&gt;&lt;div style=&quot;font-size: 24px&quot;&gt;&lt;b&gt;32*32*3&lt;/b&gt;&lt;br&gt;&lt;/div&gt;" style="text;html=1;strokeColor=none;fillColor=none;align=center;verticalAlign=middle;whiteSpace=wrap;rounded=0;rotation=-90;" vertex="1" parent="1">
          <mxGeometry x="80" y="350" width="160" height="20" as="geometry" />
        </mxCell>
      </root>
    </mxGraphModel>
  </diagram>
</mxfile>
